<mxfile host="www.draw.io" modified="2019-12-06T13:01:17.207Z" agent="Mozilla/5.0 (Macintosh; Intel Mac OS X 10_12_6) AppleWebKit/537.36 (KHTML, like Gecko) Chrome/76.0.3809.100 YaBrowser/19.9.0.1768 Yowser/2.5 Safari/537.36" etag="YFP96Hgo28MQnHOtZwXQ" version="12.3.7" type="github" pages="1">
  <diagram id="_QfzC8JpoYvBsbHtnnYq" name="Page-1">
    <mxGraphModel dx="2421" dy="1273" grid="1" gridSize="10" guides="1" tooltips="1" connect="1" arrows="1" fold="1" page="1" pageScale="1" pageWidth="4000" pageHeight="1500" math="0" shadow="0">
      <root>
        <mxCell id="0"/>
        <mxCell id="1" parent="0"/>
        <mxCell id="2QBPnsiycgCyGIN-mcoO-4" value="The C programming language" style="ellipse;whiteSpace=wrap;html=1;fontSize=16;" vertex="1" parent="1">
          <mxGeometry x="1939.5" y="20" width="120" height="80" as="geometry"/>
        </mxCell>
        <mxCell id="2QBPnsiycgCyGIN-mcoO-34" value="Data structures" style="ellipse;whiteSpace=wrap;html=1;fontSize=16;" vertex="1" parent="1">
          <mxGeometry x="960" y="100" width="120" height="80" as="geometry"/>
        </mxCell>
        <mxCell id="2QBPnsiycgCyGIN-mcoO-35" value="Integer types" style="ellipse;whiteSpace=wrap;html=1;fontSize=16;" vertex="1" parent="1">
          <mxGeometry x="230" y="160" width="120" height="80" as="geometry"/>
        </mxCell>
        <mxCell id="2QBPnsiycgCyGIN-mcoO-36" value="_Bool" style="ellipse;whiteSpace=wrap;html=1;aspect=fixed;fontSize=16;" vertex="1" parent="1">
          <mxGeometry x="20" y="260" width="80" height="80" as="geometry"/>
        </mxCell>
        <mxCell id="2QBPnsiycgCyGIN-mcoO-37" value="char" style="ellipse;whiteSpace=wrap;html=1;aspect=fixed;fontSize=16;" vertex="1" parent="1">
          <mxGeometry x="110" y="260" width="80" height="80" as="geometry"/>
        </mxCell>
        <mxCell id="2QBPnsiycgCyGIN-mcoO-38" value="signed char" style="ellipse;whiteSpace=wrap;html=1;aspect=fixed;fontSize=16;" vertex="1" parent="1">
          <mxGeometry x="200" y="260" width="80" height="80" as="geometry"/>
        </mxCell>
        <mxCell id="2QBPnsiycgCyGIN-mcoO-39" value="unsigned char" style="ellipse;whiteSpace=wrap;html=1;aspect=fixed;fontSize=16;" vertex="1" parent="1">
          <mxGeometry x="290" y="260" width="80" height="80" as="geometry"/>
        </mxCell>
        <mxCell id="2QBPnsiycgCyGIN-mcoO-40" value="short" style="ellipse;whiteSpace=wrap;html=1;aspect=fixed;fontSize=16;" vertex="1" parent="1">
          <mxGeometry x="380" y="260" width="80" height="80" as="geometry"/>
        </mxCell>
        <mxCell id="2QBPnsiycgCyGIN-mcoO-41" value="unsigned short" style="ellipse;whiteSpace=wrap;html=1;aspect=fixed;fontSize=16;" vertex="1" parent="1">
          <mxGeometry x="470" y="260" width="80" height="80" as="geometry"/>
        </mxCell>
        <mxCell id="2QBPnsiycgCyGIN-mcoO-42" value="int" style="ellipse;whiteSpace=wrap;html=1;aspect=fixed;fontSize=16;" vertex="1" parent="1">
          <mxGeometry x="20" y="380" width="80" height="80" as="geometry"/>
        </mxCell>
        <mxCell id="2QBPnsiycgCyGIN-mcoO-43" value="unsigned int" style="ellipse;whiteSpace=wrap;html=1;aspect=fixed;fontSize=16;" vertex="1" parent="1">
          <mxGeometry x="110" y="380" width="80" height="80" as="geometry"/>
        </mxCell>
        <mxCell id="2QBPnsiycgCyGIN-mcoO-44" value="long" style="ellipse;whiteSpace=wrap;html=1;aspect=fixed;fontSize=16;" vertex="1" parent="1">
          <mxGeometry x="200" y="380" width="80" height="80" as="geometry"/>
        </mxCell>
        <mxCell id="2QBPnsiycgCyGIN-mcoO-45" value="unsigned long" style="ellipse;whiteSpace=wrap;html=1;aspect=fixed;fontSize=16;" vertex="1" parent="1">
          <mxGeometry x="290" y="380" width="80" height="80" as="geometry"/>
        </mxCell>
        <mxCell id="2QBPnsiycgCyGIN-mcoO-46" value="long long" style="ellipse;whiteSpace=wrap;html=1;aspect=fixed;fontSize=16;" vertex="1" parent="1">
          <mxGeometry x="380" y="380" width="80" height="80" as="geometry"/>
        </mxCell>
        <mxCell id="2QBPnsiycgCyGIN-mcoO-47" value="unsigned long long" style="ellipse;whiteSpace=wrap;html=1;aspect=fixed;fontSize=16;" vertex="1" parent="1">
          <mxGeometry x="470" y="380" width="80" height="80" as="geometry"/>
        </mxCell>
      </root>
    </mxGraphModel>
  </diagram>
</mxfile>
